<svg id="Layer_1" enable-background="new 0 0 30 30" height="30" viewBox="0 0 30 30" width="30" xmlns="http://www.w3.org/2000/svg"><g><g><path d="m2.177 7.337c-2.656 3.818-2.325 8.784-.297 12.841.048.096.099.191.149.287.031.061.061.123.094.184l.06.105c.034.064.07.125.106.189.063.111.127.221.193.332.037.061.072.121.11.182.073.117.147.234.226.352.031.049.063.1.095.148.106.156.214.314.325.469.004.004.006.01.01.012.018.025.037.051.055.074.097.135.196.266.297.395.037.049.074.096.111.143.09.113.182.225.275.338.034.041.068.084.104.125.125.146.253.293.383.436.002.002.006.006.008.008.006.008.01.01.015.018.126.139.257.273.388.408.041.043.082.084.125.125.102.104.205.205.31.305.043.041.085.082.127.121.14.131.28.26.425.387.002.002.004.004.007.004.024.023.05.043.073.064.127.109.256.219.387.326.053.043.106.084.16.127.105.084.213.168.321.252.058.043.114.086.172.131.119.088.239.174.36.258.045.033.088.064.132.094.013.008.024.018.036.025.115.08.233.156.352.232.05.033.1.068.15.102.182.113.364.227.549.336.051.029.102.057.152.086.137.078.273.154.412.23.074.041.152.078.228.117.099.051.195.104.295.152.022.012.046.023.068.033.04.02.08.039.12.059.154.074.311.146.468.217.033.016.065.029.099.043.18.08.361.156.545.227.044.02.088.035.133.053.17.066.342.131.514.191.021.008.043.014.064.021.189.066.381.129.574.188.046.014.092.029.139.041.195.061.389.131.592.168 12.846 2.342 16.575-7.719 16.575-7.719-3.132 4.082-8.695 5.16-13.966 3.961-.199-.045-.393-.107-.588-.166-.049-.014-.098-.029-.146-.045-.19-.057-.379-.119-.566-.184-.025-.01-.052-.018-.078-.027-.168-.061-.334-.121-.5-.186-.046-.02-.093-.037-.139-.055-.182-.072-.361-.146-.54-.225-.036-.016-.071-.031-.107-.047-.153-.07-.304-.141-.455-.213-.044-.02-.087-.041-.132-.063-.117-.059-.234-.119-.352-.18-.078-.041-.157-.08-.234-.123-.143-.076-.283-.154-.422-.236-.047-.025-.095-.051-.143-.078-.186-.109-.367-.223-.549-.338-.05-.031-.099-.064-.148-.098-.131-.084-.262-.172-.391-.26-.043-.029-.084-.061-.126-.088-.124-.088-.247-.178-.369-.268-.056-.041-.11-.082-.163-.125-.112-.084-.224-.17-.334-.26-.05-.039-.1-.08-.148-.119-.141-.115-.278-.23-.415-.35-.015-.012-.03-.025-.046-.039-.148-.129-.293-.262-.436-.396-.045-.038-.085-.077-.125-.116-.106-.102-.211-.203-.314-.309-.041-.041-.082-.08-.123-.121-.13-.135-.259-.27-.385-.408-.006-.006-.012-.014-.019-.02-.133-.146-.263-.295-.39-.445-.035-.041-.068-.08-.103-.121-.095-.113-.189-.23-.281-.348-.034-.041-.069-.084-.103-.127-.111-.145-.219-.287-.324-.432-2.926-3.991-3.978-9.495-1.638-14.016"/><path d="m10.422 4.12c-1.921 2.766-1.816 6.465-.318 9.389.251.49.533.965.85 1.418.287.412.607.904.988 1.233.139.152.283.303.432.447.037.039.075.076.113.113.144.139.289.275.44.408.007.006.012.012.019.016.001.002.002.002.004.004.166.146.339.287.514.426.039.029.078.061.117.092.176.135.354.266.537.393.006.004.011.008.016.012.082.057.164.107.246.162.039.025.076.053.116.076.131.084.264.166.398.244.02.012.038.021.057.033.116.066.234.133.353.197.041.023.084.043.125.064.082.043.164.086.247.129.013.006.024.012.037.016.169.084.34.164.515.24.037.016.075.031.113.047.139.059.28.117.422.17.06.023.12.045.18.066.129.049.258.092.388.135.059.02.116.039.175.057.185.057.367.131.56.162 9.918 1.643 12.207-5.991 12.207-5.991-2.064 2.97-6.061 4.39-10.325 3.282-.189-.051-.377-.104-.563-.162-.057-.018-.111-.037-.168-.055-.133-.043-.264-.088-.394-.137-.06-.021-.118-.043-.177-.064-.143-.055-.283-.111-.424-.172-.037-.016-.076-.031-.113-.047-.176-.076-.348-.158-.518-.242-.088-.041-.174-.086-.26-.131-.049-.025-.1-.053-.149-.078-.11-.059-.22-.121-.328-.183-.026-.016-.053-.029-.079-.044-.134-.078-.266-.16-.396-.242-.041-.027-.08-.055-.121-.08-.086-.057-.172-.113-.257-.172-.183-.125-.36-.258-.536-.391-.041-.033-.081-.064-.121-.096-1.867-1.475-3.347-3.488-4.051-5.773-.736-2.369-.578-5.027.699-7.186"/><path d="m17.355 1.718c-1.132 1.666-1.243 3.736-.457 5.576.828 1.955 2.526 3.486 4.508 4.213.082.031.164.059.246.086.037.012.072.023.109.035.116.035.232.078.354.102 5.476 1.059 6.96-2.811 7.356-3.381-1.303 1.875-3.487 2.324-6.171 1.672-.212-.051-.445-.127-.648-.199-.263-.094-.521-.201-.771-.32-.477-.229-.931-.506-1.352-.824-2.4-1.822-3.893-5.297-2.326-8.127"/></g></g></svg>