<svg xmlns="http://www.w3.org/2000/svg" xmlns:xlink="http://www.w3.org/1999/xlink" width="64" zoomAndPan="magnify" viewBox="0 0 48 48" height="64" preserveAspectRatio="xMidYMid meet" version="1.0"><defs><g/><clipPath id="cf830a2b77"><path d="M 0.488281 0 L 47.507812 0 L 47.507812 47.019531 L 0.488281 47.019531 Z M 0.488281 0 " clip-rule="nonzero"/></clipPath><clipPath id="8883fd83e4"><path d="M 24 0 C 11.015625 0 0.488281 10.527344 0.488281 23.511719 C 0.488281 36.496094 11.015625 47.019531 24 47.019531 C 36.984375 47.019531 47.511719 36.496094 47.511719 23.511719 C 47.511719 10.527344 36.984375 0 24 0 Z M 24 0 " clip-rule="nonzero"/></clipPath></defs><g clip-path="url(#cf830a2b77)"><g clip-path="url(#8883fd83e4)"><path fill="#111827" d="M 0.488281 0 L 47.511719 0 L 47.511719 47.019531 L 0.488281 47.019531 Z M 0.488281 0 " fill-opacity="1" fill-rule="nonzero"/></g></g><g fill="#d1d5db" fill-opacity="1"><g transform="translate(5.191836, 32.232833)"><g><path d="M 2.34375 -18.6875 L 8.171875 -18.6875 C 10.816406 -18.6875 12.738281 -18.304688 13.9375 -17.546875 C 15.132812 -16.796875 15.734375 -15.597656 15.734375 -13.953125 C 15.734375 -12.835938 15.46875 -11.921875 14.9375 -11.203125 C 14.414062 -10.492188 13.722656 -10.066406 12.859375 -9.921875 L 12.859375 -9.78125 C 14.035156 -9.519531 14.882812 -9.023438 15.40625 -8.296875 C 15.9375 -7.578125 16.203125 -6.617188 16.203125 -5.421875 C 16.203125 -3.710938 15.585938 -2.378906 14.359375 -1.421875 C 13.128906 -0.472656 11.457031 0 9.34375 0 L 2.34375 0 Z M 6.3125 -11.28125 L 8.609375 -11.28125 C 9.679688 -11.28125 10.457031 -11.445312 10.9375 -11.78125 C 11.425781 -12.113281 11.671875 -12.664062 11.671875 -13.4375 C 11.671875 -14.144531 11.40625 -14.65625 10.875 -14.96875 C 10.351562 -15.28125 9.523438 -15.4375 8.390625 -15.4375 L 6.3125 -15.4375 Z M 6.3125 -8.140625 L 6.3125 -3.265625 L 8.890625 -3.265625 C 9.984375 -3.265625 10.789062 -3.472656 11.3125 -3.890625 C 11.832031 -4.316406 12.09375 -4.957031 12.09375 -5.8125 C 12.09375 -7.363281 10.984375 -8.140625 8.765625 -8.140625 Z M 6.3125 -8.140625 "/></g></g><g transform="translate(22.773381, 32.232833)"><g><path d="M 17.65625 0 L 13.71875 0 L 13.71875 -8.0625 L 6.3125 -8.0625 L 6.3125 0 L 2.34375 0 L 2.34375 -18.6875 L 6.3125 -18.6875 L 6.3125 -11.359375 L 13.71875 -11.359375 L 13.71875 -18.6875 L 17.65625 -18.6875 Z M 17.65625 0 "/></g></g></g></svg>